<svg width="144" height="44" viewBox="0 0 144 44" fill="none" xmlns="http://www.w3.org/2000/svg">
<mask id="path-1-inside-1_2_12471" fill="white">
<rect width="44" height="44" rx="4"/>
</mask>
<rect width="44" height="44" rx="4" fill="white" stroke="#4D007D" stroke-width="12" mask="url(#path-1-inside-1_2_12471)"/>
<path d="M56.8 33C55.9893 33 55.36 32.776 54.912 32.328C54.4853 31.88 54.272 31.2613 54.272 30.472V12.904C54.272 12.072 54.4853 11.4427 54.912 11.016C55.3387 10.5893 55.9573 10.376 56.768 10.376C57.5573 10.376 58.1653 10.5893 58.592 11.016C59.0187 11.4427 59.232 12.072 59.232 12.904V28.808H67.808C68.4907 28.808 69.0133 28.9893 69.376 29.352C69.76 29.7147 69.952 30.2267 69.952 30.888C69.952 31.5707 69.76 32.0933 69.376 32.456C69.0133 32.8187 68.4907 33 67.808 33H56.8ZM81.8298 33.352C79.6111 33.352 77.6591 32.872 75.9738 31.912C74.3098 30.9307 73.0084 29.5653 72.0698 27.816C71.1524 26.0667 70.6938 24.0293 70.6938 21.704C70.6938 19.9333 70.9498 18.344 71.4618 16.936C71.9951 15.5067 72.7524 14.2907 73.7338 13.288C74.7151 12.264 75.8884 11.4747 77.2538 10.92C78.6404 10.3653 80.1658 10.088 81.8298 10.088C84.0911 10.088 86.0538 10.568 87.7178 11.528C89.3818 12.488 90.6724 13.8427 91.5898 15.592C92.5284 17.32 92.9978 19.3467 92.9978 21.672C92.9978 23.4427 92.7311 25.0427 92.1978 26.472C91.6644 27.9013 90.9071 29.128 89.9258 30.152C88.9444 31.176 87.7711 31.9653 86.4058 32.52C85.0404 33.0747 83.5151 33.352 81.8298 33.352ZM81.8298 29.128C83.0884 29.128 84.1551 28.84 85.0298 28.264C85.9258 27.6667 86.6084 26.8133 87.0778 25.704C87.5684 24.5733 87.8138 23.24 87.8138 21.704C87.8138 19.3573 87.2911 17.544 86.2458 16.264C85.2004 14.9627 83.7284 14.312 81.8298 14.312C80.5924 14.312 79.5258 14.6 78.6298 15.176C77.7338 15.752 77.0511 16.5947 76.5818 17.704C76.1124 18.8133 75.8778 20.1467 75.8778 21.704C75.8778 24.0293 76.4004 25.8533 77.4458 27.176C78.4911 28.4773 79.9524 29.128 81.8298 29.128ZM108.003 33.352C105.464 33.352 103.309 32.872 101.539 31.912C99.7892 30.952 98.4558 29.608 97.5385 27.88C96.6212 26.152 96.1625 24.1253 96.1625 21.8C96.1625 20.008 96.4292 18.3973 96.9625 16.968C97.5172 15.5173 98.3065 14.2907 99.3305 13.288C100.376 12.264 101.635 11.4747 103.107 10.92C104.6 10.3653 106.285 10.088 108.163 10.088C109.315 10.088 110.467 10.216 111.619 10.472C112.771 10.728 113.88 11.1547 114.947 11.752C115.395 12.008 115.693 12.3387 115.843 12.744C116.013 13.128 116.056 13.544 115.971 13.992C115.907 14.4187 115.736 14.8027 115.459 15.144C115.203 15.464 114.861 15.6773 114.435 15.784C114.029 15.8693 113.56 15.784 113.027 15.528C112.323 15.144 111.576 14.8667 110.787 14.696C109.997 14.504 109.133 14.408 108.195 14.408C106.68 14.408 105.411 14.696 104.387 15.272C103.363 15.8267 102.595 16.6587 102.083 17.768C101.592 18.856 101.347 20.2 101.347 21.8C101.347 24.2107 101.923 26.0347 103.075 27.272C104.248 28.5093 105.976 29.128 108.259 29.128C109.027 29.128 109.816 29.0533 110.627 28.904C111.437 28.7547 112.237 28.5413 113.027 28.264L112.099 30.28V24.136H109.219C108.579 24.136 108.088 23.976 107.747 23.656C107.405 23.336 107.235 22.8987 107.235 22.344C107.235 21.768 107.405 21.3307 107.747 21.032C108.088 20.712 108.579 20.552 109.219 20.552H114.243C114.883 20.552 115.363 20.7227 115.683 21.064C116.024 21.4053 116.195 21.896 116.195 22.536V29.96C116.195 30.5147 116.088 30.984 115.875 31.368C115.661 31.752 115.299 32.0293 114.787 32.2C113.827 32.5413 112.749 32.8187 111.555 33.032C110.36 33.2453 109.176 33.352 108.003 33.352ZM131.049 33.352C128.83 33.352 126.878 32.872 125.193 31.912C123.529 30.9307 122.227 29.5653 121.289 27.816C120.371 26.0667 119.913 24.0293 119.913 21.704C119.913 19.9333 120.169 18.344 120.681 16.936C121.214 15.5067 121.971 14.2907 122.953 13.288C123.934 12.264 125.107 11.4747 126.473 10.92C127.859 10.3653 129.385 10.088 131.049 10.088C133.31 10.088 135.273 10.568 136.937 11.528C138.601 12.488 139.891 13.8427 140.809 15.592C141.747 17.32 142.217 19.3467 142.217 21.672C142.217 23.4427 141.95 25.0427 141.417 26.472C140.883 27.9013 140.126 29.128 139.145 30.152C138.163 31.176 136.99 31.9653 135.625 32.52C134.259 33.0747 132.734 33.352 131.049 33.352ZM131.049 29.128C132.307 29.128 133.374 28.84 134.249 28.264C135.145 27.6667 135.827 26.8133 136.297 25.704C136.787 24.5733 137.033 23.24 137.033 21.704C137.033 19.3573 136.51 17.544 135.465 16.264C134.419 14.9627 132.947 14.312 131.049 14.312C129.811 14.312 128.745 14.6 127.849 15.176C126.953 15.752 126.27 16.5947 125.801 17.704C125.331 18.8133 125.097 20.1467 125.097 21.704C125.097 24.0293 125.619 25.8533 126.665 27.176C127.71 28.4773 129.171 29.128 131.049 29.128Z" fill="#4D007D"/>
</svg>
