<svg width="21" height="16" viewBox="0 0 21 16" fill="none" xmlns="http://www.w3.org/2000/svg">
<path d="M16.5051 15H18C19.1046 15 20.0669 14.076 19.716 13.0286C19.1812 11.4325 17.8656 10.4672 15.5527 10.1329M12.5001 6.86448C12.7911 6.95646 13.1244 7 13.5 7C15.1667 7 16 6.14286 16 4C16 1.85714 15.1667 1 13.5 1C13.1244 1 12.7911 1.04354 12.5001 1.13552M7.5 10C11.1135 10 13.0395 11.0095 13.716 13.0286C14.0669 14.076 13.1046 15 12 15H3C1.89543 15 0.933107 14.076 1.28401 13.0286C1.96047 11.0095 3.88655 10 7.5 10ZM7.5 7C9.16667 7 10 6.14286 10 4C10 1.85714 9.16667 1 7.5 1C5.83333 1 5 1.85714 5 4C5 6.14286 5.83333 7 7.5 7Z" stroke="black" stroke-width="2" stroke-linecap="round" stroke-linejoin="round"/>
</svg>
